# File created by Blade
# Date/Time:  Fri Jan 16 17:25:32 2015
#---------------------------------------------------------
:version 1.10
:name HOM
:units
  mass 1.0
  length 1.000000
  angle deg
:documentation
     Acclaim Skeleton File
:root
   axis xyz
   order TX TY TZ RX RY RZ
   position 0.000000 0.000000 0.000000
   orientation 0 0 0
:bonedata
   begin
      id 1
      name Spine_dum
      direction 0.000000 1.000000 0.000000
      length 7.170412
      axis 0.0 0.0 0.0 xyz
   end
   begin
      id 2
      name LeftUpLeg_dum
      direction 1.000000 0.000000 0.000000
      length 4.318350
      axis 0.0 0.0 0.0 xyz
   end
   begin
      id 3
      name RightUpLeg_dum
      direction -1.000000 0.000000 0.000000
      length 4.318350
      axis 0.0 0.0 0.0 xyz
   end
   begin
      id 4
      name Spine
      direction 0.000000 1.000000 0.000000
      length 0.000000
      axis 0.0 0.0 0.0 xyz
      dof rx ry rz
   end
   begin
      id 5
      name Spine_dum1
      direction 0.000000 1.000000 0.000000
      length 14.276153
      axis 0.0 0.0 0.0 xyz
   end
   begin
      id 6
      name Spine_dum2
      direction 0.000000 1.000000 0.000000
      length 10.718243
      axis 0.0 0.0 0.0 xyz
   end
   begin
      id 7
      name Spine_dum3
      direction 0.000000 1.000000 0.000000
      length 10.718243
      axis 0.0 0.0 0.0 xyz
   end
   begin
      id 8
      name Head
      direction 0.000000 1.000000 0.000000
      length 4.527550
      axis 0.0 0.0 0.0 xyz
      dof rx ry rz
   end
   begin
      id 9
      name LeftShoulder
      direction 1.000000 0.000000 0.000000
      length 7.058872
      axis 0.0 0.0 -90.0 xyz
      dof rx ry rz
   end
   begin
      id 10
      name LeftArm
      direction 1.000000 0.000000 0.000000
      length 10.955525
      axis 0.0 0.0 -90.0 xyz
      dof rx ry rz
   end
   begin
      id 11
      name LeftForeArm
      direction 1.000000 0.000000 0.000000
      length 8.193716
      axis 0.0 0.0 -90.0 xyz
      dof ry rz rx
   end
   begin
      id 12
      name LeftHand
      direction 0.000000 0.000000 0.000000
      length 0.000000
      axis 0.0 0.0 -90.0 xyz
      dof rx ry rz
   end
   begin
      id 13
      name LeftHand_dum1
      direction 0.000000 0.000000 0.000000
      length 0.000000
      axis 0.0 0.0 -90.0 xyz
   end
   begin
      id 14
      name LeftHand_dum2
      direction 1.000000 0.000000 0.000000
      length 3.937000
      axis 0.0 0.0 -90.0 xyz
   end
   begin
      id 15
      name LeftHandThumb1
      direction 0.000000 0.000000 1.000000
      length 3.937000
      axis 0.0 0.0 -90.0 xyz
      dof rx rz ry
   end
   begin
      id 16
      name RightShoulder
      direction -1.000000 0.000000 0.000000
      length 7.058872
      axis 0.0 0.0 90.0 xyz
      dof rx ry rz
   end
   begin
      id 17
      name RightArm
      direction -1.000000 0.000000 0.000000
      length 10.955525
      axis 0.0 0.0 90.0 xyz
      dof rx ry rz
   end
   begin
      id 18
      name RightForeArm
      direction -1.000000 0.000000 0.000000
      length 8.193716
      axis 0.0 0.0 90.0 xyz
      dof ry rz rx
   end
   begin
      id 19
      name RightHand
      direction 0.000000 0.000000 0.000000
      length 0.000000
      axis 0.0 0.0 90.0 xyz
      dof rx ry rz
   end
   begin
      id 20
      name RightHand_dum1
      direction 0.000000 0.000000 0.000000
      length 0.000000
      axis 0.0 0.0 90.0 xyz
   end
   begin
      id 21
      name RightHand_dum2
      direction -1.000000 0.000000 0.000000
      length 3.937000
      axis 0.0 0.0 90.0 xyz
   end
   begin
      id 22
      name RightHandThumb1
      direction 0.000000 0.000000 1.000000
      length 3.937000
      axis 0.0 0.0 90.0 xyz
      dof rx rz ry
   end
   begin
      id 23
      name LeftUpLeg
      direction 0.000000 -1.000000 0.000000
      length 17.323638
      axis 0.0 0.0 0.0 xyz
      dof rx ry rz
   end
   begin
      id 24
      name LeftLeg
      direction 0.000000 -1.000000 0.000000
      length 16.270368
      axis 0.0 0.0 0.0 xyz
      dof rx ry rz
   end
   begin
      id 25
      name LeftFoot
      direction 0.000000 -0.258819 0.965926
      length 4.922846
      axis 15.0 0.0 0.0 xyz
      dof rx ry rz
   end
   begin
      id 26
      name LeftToeBase
      direction 0.000000 0.000000 1.000000
      length 2.952750
      axis 0.0 0.0 0.0 xyz
      dof rx ry rz
   end
   begin
      id 27
      name RightUpLeg
      direction 0.000000 -1.000000 0.000000
      length 17.323638
      axis 0.0 0.0 0.0 xyz
      dof rx ry rz
   end
   begin
      id 28
      name RightLeg
      direction 0.000000 -1.000000 0.000000
      length 16.270368
      axis 0.0 0.0 0.0 xyz
      dof rx ry rz
   end
   begin
      id 29
      name RightFoot
      direction 0.000000 -0.258819 0.965926
      length 4.922846
      axis 15.0 0.0 0.0 xyz
      dof rx ry rz
   end
   begin
      id 30
      name RightToeBase
      direction 0.000000 0.000000 1.000000
      length 2.952750
      axis 0.0 0.0 0.0 xyz
      dof rx ry rz
   end
:hierarchy
   begin
      root Spine_dum LeftUpLeg_dum RightUpLeg_dum
      Spine_dum Spine
      LeftUpLeg_dum LeftUpLeg
      RightUpLeg_dum RightUpLeg
      Spine Spine_dum1 Spine_dum2 Spine_dum3
      Spine_dum1 Head
      Spine_dum2 LeftShoulder
      Spine_dum3 RightShoulder
      LeftShoulder LeftArm
      LeftArm LeftForeArm
      LeftForeArm LeftHand
      LeftHand LeftHand_dum1 LeftHand_dum2
      LeftHand_dum1 LeftHandThumb1
      RightShoulder RightArm
      RightArm RightForeArm
      RightForeArm RightHand
      RightHand RightHand_dum1 RightHand_dum2
      RightHand_dum1 RightHandThumb1
      LeftUpLeg LeftLeg
      LeftLeg LeftFoot
      LeftFoot LeftToeBase
      RightUpLeg RightLeg
      RightLeg RightFoot
      RightFoot RightToeBase
   end

# File created by Blade
# Date/Time:  Fri Jan 16 17:25:22 2015
# Frame Rate: 120.000 fps
#------------------------------------------------------
:FULLY-SPECIFIED
:DEGREES
907
root -5.713260 35.250524 -10.805054 -3.426592 -9.937133 -6.139825
Spine 3.897031 1.932510 9.601672
Head 3.796849 7.434665 -4.977411
LeftShoulder -18.325316 16.094066 -16.243650
LeftArm 26.735052 20.727415 -65.523709
LeftForeArm 11.695383 0.000000 15.404662
LeftHand 0.709071 0.000000 -7.421236
LeftHandThumb1 -26.253704 0.000000 33.147579
RightShoulder -0.875755 -4.087109 2.549442
RightArm 11.046308 -36.983141 65.877337
RightForeArm -26.266397 -0.000000 23.524751
RightHand 2.012134 -0.000000 7.695258
RightHandThumb1 -24.326973 -0.000000 -32.862282
LeftUpLeg 13.203411 17.376130 8.457056
LeftLeg -8.874976 -0.000000 0.000000
LeftFoot -14.822378 29.569420 -7.384479
LeftToeBase 23.070451 -0.000000 -0.000000
RightUpLeg 8.327744 -4.102884 2.837806
RightLeg -4.085618 -0.000000 0.000000
RightFoot -3.246784 -22.301061 5.290155
RightToeBase 13.769456 -0.000000 -0.000000
908
root -5.713189 35.250226 -10.804799 -3.430887 -9.941683 -6.139905
Spine 3.911355 1.908308 9.608563
Head 3.770515 7.567004 -5.026837
LeftShoulder -18.333354 16.116618 -16.252892
LeftArm 26.770108 20.726920 -65.501357
LeftForeArm 11.704102 0.000000 15.393578
LeftHand 0.712242 -0.000000 -7.459323
LeftHandThumb1 -26.253704 0.000000 33.147579
RightShoulder -0.870596 -4.109971 2.543499
RightArm 11.087276 -36.989591 65.847179
RightForeArm -26.222845 -0.000000 23.534600
RightHand 1.997709 0.000000 7.679140
RightHandThumb1 -24.326973 -0.000000 -32.862282
LeftUpLeg 13.211538 17.383368 8.459477
LeftLeg -8.877396 -0.000000 0.000000
LeftFoot -14.816332 29.560438 -7.372673
LeftToeBase 23.078166 -0.000000 -0.000000
RightUpLeg 8.329475 -4.086434 2.841024
RightLeg -4.080061 -0.000000 0.000000
RightFoot -3.259927 -22.323562 5.287637
RightToeBase 13.782350 -0.000000 -0.000000
909
root -5.713763 35.250411 -10.805433 -3.432209 -9.953941 -6.140717
Spine 3.930295 1.896773 9.610901
Head 3.714945 7.688494 -5.049023
LeftShoulder -18.336445 16.101787 -16.253513
LeftArm 26.769767 20.716565 -65.494980
LeftForeArm 11.746926 0.000000 15.387622
LeftHand 0.711569 -0.000000 -7.366273
LeftHandThumb1 -26.253704 0.000000 33.147579
RightShoulder -0.871089 -4.081526 2.553446
RightArm 11.071335 -36.998151 65.840802
RightForeArm -26.224801 -0.000000 23.555591
RightHand 2.004317 -0.000000 7.689840
RightHandThumb1 -24.326973 -0.000000 -32.862282
LeftUpLeg 13.212010 17.388909 8.462351
LeftLeg -8.872316 -0.000000 0.000000
LeftFoot -14.825516 29.570133 -7.383141
LeftToeBase 23.071094 -0.000000 -0.000000
RightUpLeg 8.323312 -4.094929 2.841454
RightLeg -4.068499 -0.000000 0.000000
RightFoot -3.254480 -22.302432 5.259700
RightToeBase 13.812472 -0.000000 -0.000000
910
root -5.714242 35.250311 -10.805537 -3.438889 -9.951526 -6.142891
Spine 3.949338 1.869368 9.622657
Head 3.696098 7.792268 -5.145599
LeftShoulder -18.332118 16.115058 -16.259408
LeftArm 26.785529 20.709466 -65.477204
LeftForeArm 11.780849 0.000000 15.399076
LeftHand 0.669353 -0.000000 -7.235392
LeftHandThumb1 -26.253704 0.000000 33.147579
RightShoulder -0.871640 -4.078025 2.542610
RightArm 11.084299 -37.001228 65.834711
RightForeArm -26.187958 -0.000000 23.565230
RightHand 1.992879 -0.000000 7.701412
RightHandThumb1 -24.326973 -0.000000 -32.862282
LeftUpLeg 13.216249 17.377394 8.465492
LeftLeg -8.868686 -0.000000 0.000000
LeftFoot -14.835798 29.575190 -7.394912
LeftToeBase 23.079736 -0.000000 -0.000000
RightUpLeg 8.330802 -4.103128 2.843896
RightLeg -4.069748 -0.000000 0.000000
RightFoot -3.258375 -22.305551 5.272486
RightToeBase 13.812988 -0.000000 -0.000000
911
root -5.713853 35.250398 -10.805735 -3.439281 -9.962507 -6.144715
Spine 3.967811 1.859019 9.636243
Head 3.645951 7.912552 -5.221891
LeftShoulder -18.328054 16.118228 -16.266199
LeftArm 26.796163 20.703005 -65.461514
LeftForeArm 11.870506 -0.000000 15.408425
LeftHand 0.662266 -0.000000 -7.072527
LeftHandThumb1 -26.253704 0.000000 33.147579
RightShoulder -0.880951 -4.077076 2.536853
RightArm 11.094107 -36.986736 65.827195
RightForeArm -26.191870 0.000000 23.580844
RightHand 1.980963 -0.000000 7.683874
RightHandThumb1 -24.326973 -0.000000 -32.862282
LeftUpLeg 13.222451 17.402058 8.469828
LeftLeg -8.874690 -0.000000 0.000000
LeftFoot -14.819585 29.567934 -7.375563
LeftToeBase 23.075351 -0.000000 -0.000000
RightUpLeg 8.326874 -4.077753 2.845396
RightLeg -4.061007 -0.000000 0.000000
RightFoot -3.258383 -22.306910 5.286906
RightToeBase 13.775618 -0.000000 -0.000000
912
root -5.714447 35.250352 -10.805347 -3.448639 -9.970956 -6.149499
Spine 3.994944 1.839751 9.648475
Head 3.584990 8.038396 -5.286592
LeftShoulder -18.330658 16.115248 -16.267172
LeftArm 26.805463 20.714878 -65.445168
LeftForeArm 11.863761 -0.000000 15.412125
LeftHand 0.652782 -0.000000 -7.086372
LeftHandThumb1 -26.253704 0.000000 33.147579
RightShoulder -0.874474 -4.077883 2.531484
RightArm 11.100443 -36.988136 65.817364
RightForeArm -26.172367 -0.000000 23.600162
RightHand 1.963717 -0.000000 7.643086
RightHandThumb1 -24.326973 -0.000000 -32.862282
LeftUpLeg 13.237584 17.414115 8.481079
LeftLeg -8.875260 -0.000000 0.000000
LeftFoot -14.828627 29.557796 -7.378361
LeftToeBase 23.087786 -0.000000 -0.000000
RightUpLeg 8.333932 -4.058988 2.850524
RightLeg -4.052633 -0.000000 0.000000
RightFoot -3.268311 -22.306181 5.291374
RightToeBase 13.789032 -0.000000 -0.000000
913
root -5.714597 35.250396 -10.805632 -3.453369 -9.975086 -6.151923
Spine 4.021138 1.820568 9.655584
Head 3.522047 8.152768 -5.351049
LeftShoulder -18.338950 16.102701 -16.269181
LeftArm 26.820370 20.748262 -65.415666
LeftForeArm 11.841430 -0.000000 15.413177
LeftHand 0.658449 -0.000000 -7.101862
LeftHandThumb1 -26.253704 0.000000 33.147579
RightShoulder -0.893036 -4.083685 2.534592
RightArm 11.143487 -37.013242 65.771105
RightForeArm -26.128973 0.000000 23.617721
RightHand 1.956372 -0.000000 7.664052
RightHandThumb1 -24.326973 -0.000000 -32.862282
LeftUpLeg 13.241352 17.398426 8.481209
LeftLeg -8.865156 -0.000000 0.000000
LeftFoot -14.838689 29.582252 -7.352735
LeftToeBase 23.131109 -0.000000 -0.000000
RightUpLeg 8.335353 -4.047376 2.853982
RightLeg -4.046721 -0.000000 0.000000
RightFoot -3.276169 -22.311844 5.312701
RightToeBase 13.766282 -0.000000 -0.000000
914
root -5.714278 35.250461 -10.806566 -3.452278 -9.978092 -6.149853
Spine 4.039297 1.808580 9.663620
Head 3.464719 8.240280 -5.436451
LeftShoulder -18.333115 16.099950 -16.273907
LeftArm 26.830127 20.754767 -65.400845
LeftForeArm 11.837964 -0.000000 15.417205
LeftHand 0.631685 -0.000000 -7.075054
LeftHandThumb1 -26.253704 0.000000 33.147579
RightShoulder -0.907045 -4.081509 2.525779
RightArm 11.153205 -36.995539 65.773333
RightForeArm -26.118819 -0.000000 23.627077
RightHand 1.941412 -0.000000 7.627037
RightHandThumb1 -24.326973 -0.000000 -32.862282
LeftUpLeg 13.240279 17.427776 8.482030
LeftLeg -8.869337 -0.000000 0.000000
LeftFoot -14.836945 29.566705 -7.361465
LeftToeBase 23.117851 -0.000000 -0.000000
RightUpLeg 8.327708 -4.057988 2.851166
RightLeg -4.036125 -0.000000 0.000000
RightFoot -3.276997 -22.295287 5.289278
RightToeBase 13.816314 -0.000000 -0.000000
915
root -5.714950 35.250420 -10.807750 -3.452986 -9.973923 -6.152447
Spine 4.061093 1.787266 9.668509
Head 3.400210 8.330074 -5.509267
LeftShoulder -18.328797 16.115971 -16.275578
LeftArm 26.849954 20.727948 -65.401078
LeftForeArm 11.828989 -0.000000 15.426143
LeftHand 0.648740 0.000000 -7.061281
LeftHandThumb1 -26.253704 0.000000 33.147579
RightShoulder -0.914098 -4.087622 2.526686
RightArm 11.171787 -36.999293 65.750606
RightForeArm -26.071629 -0.000000 23.652972
RightHand 1.921081 -0.000000 7.616029
RightHandThumb1 -24.326973 -0.000000 -32.862282
LeftUpLeg 13.236371 17.411034 8.482738
LeftLeg -8.865955 -0.000000 0.000000
LeftFoot -14.835219 29.575299 -7.345321
LeftToeBase 23.163549 -0.000000 -0.000000
RightUpLeg 8.325272 -4.068778 2.855093
RightLeg -4.032607 -0.000000 0.000000
RightFoot -3.278433 -22.304725 5.286626
RightToeBase 13.802990 -0.000000 -0.000000
916
root -5.715551 35.250521 -10.808689 -3.452365 -9.973317 -6.151244
Spine 4.081053 1.771004 9.670767
Head 3.327382 8.430392 -5.577697
LeftShoulder -18.324106 16.110969 -16.277227
LeftArm 26.851905 20.730167 -65.384018
LeftForeArm 11.816170 -0.000000 15.446360
LeftHand 0.654642 -0.000000 -7.085240
LeftHandThumb1 -26.253704 0.000000 33.147579
RightShoulder -0.920445 -4.079121 2.524812
RightArm 11.169648 -36.994684 65.751271
RightForeArm -26.032403 -0.000000 23.665603
RightHand 1.912411 -0.000000 7.574362
RightHandThumb1 -24.326973 -0.000000 -32.862282
LeftUpLeg 13.225074 17.409460 8.485085
LeftLeg -8.850803 -0.000000 0.000000
LeftFoot -14.841648 29.561930 -7.380854
LeftToeBase 23.072145 -0.000000 -0.000000
RightUpLeg 8.322027 -4.078665 2.855034
RightLeg -4.031970 -0.000000 0.000000
RightFoot -3.266458 -22.294695 5.246973
RightToeBase 13.829700 -0.000000 -0.000000
917
root -5.716678 35.250594 -10.809523 -3.449289 -9.970772 -6.155027
Spine 4.094814 1.757173 9.674838
Head 3.263671 8.517347 -5.646374
LeftShoulder -18.323299 16.119478 -16.275181
LeftArm 26.879952 20.742866 -65.361937
LeftForeArm 11.812425 0.000000 15.445856
LeftHand 0.635734 -0.000000 -7.087740
LeftHandThumb1 -26.253704 0.000000 33.147579
RightShoulder -0.926041 -4.078695 2.525562
RightArm 11.161874 -36.978915 65.755394
RightForeArm -25.982758 -0.000000 23.680455
RightHand 1.921488 -0.000000 7.526447
RightHandThumb1 -24.326973 -0.000000 -32.862282
LeftUpLeg 13.225725 17.418463 8.487892
LeftLeg -8.858289 -0.000000 0.000000
LeftFoot -14.835709 29.571733 -7.350733
LeftToeBase 23.116723 -0.000000 -0.000000
RightUpLeg 8.321871 -4.064461 2.860418
RightLeg -4.036557 -0.000000 0.000000
RightFoot -3.265494 -22.301853 5.288447
RightToeBase 13.787183 -0.000000 -0.000000
918
root -5.717654 35.250564 -10.809648 -3.448171 -9.980804 -6.155741
Spine 4.112390 1.745450 9.676153
Head 3.194396 8.626665 -5.716378
LeftShoulder -18.339897 16.112837 -16.289086
LeftArm 26.890737 20.696050 -65.346662
LeftForeArm 12.191208 -0.000000 15.460454
LeftHand 0.558159 0.000000 -6.352277
LeftHandThumb1 -26.253704 0.000000 33.147579
RightShoulder -0.927435 -4.065951 2.522007
RightArm 11.150138 -36.970490 65.765700
RightForeArm -25.937517 0.000000 23.690793
RightHand 1.921607 -0.000000 7.519191
RightHandThumb1 -24.326973 -0.000000 -32.862282
LeftUpLeg 13.235245 17.452303 8.497093
LeftLeg -8.876526 -0.000000 0.000000
LeftFoot -14.816564 29.529694 -7.366778
LeftToeBase 23.109593 -0.000000 -0.000000
RightUpLeg 8.313882 -4.080087 2.863139
RightLeg -4.024965 -0.000000 0.000000
RightFoot -3.270798 -22.296372 5.263307
RightToeBase 13.827606 -0.000000 -0.000000
919
root -5.717453 35.250627 -10.810334 -3.443736 -9.980962 -6.157156
Spine 4.124902 1.733406 9.683316
Head 3.126072 8.727282 -5.788106
LeftShoulder -18.340665 16.108835 -16.300760
LeftArm 26.894290 20.684158 -65.337520
LeftForeArm 12.212950 -0.000000 15.478256
LeftHand 0.514683 0.000000 -6.225103
LeftHandThumb1 -26.253704 0.000000 33.147579
RightShoulder -0.931828 -4.075867 2.512162
RightArm 11.167218 -36.958077 65.760809
RightForeArm -25.901573 -0.000000 23.682866
RightHand 1.937910 0.000000 7.526989
RightHandThumb1 -24.326973 -0.000000 -32.862282
LeftUpLeg 13.232981 17.455332 8.497148
LeftLeg -8.883848 -0.000000 0.000000
LeftFoot -14.820379 29.536625 -7.370341
LeftToeBase 23.094769 -0.000000 -0.000000
RightUpLeg 8.310861 -4.081545 2.864057
RightLeg -4.030064 -0.000000 0.000000
RightFoot -3.273776 -22.287385 5.299355
RightToeBase 13.785815 -0.000000 -0.000000
